<svg height="512.1181" viewBox="0 0 135.49791 135.49791" width="512.1181" xmlns="http://www.w3.org/2000/svg"><path d="m0 0h135.46666v135.46666h-135.46666z" fill="#fff" stroke-width="4.46486"/><g stroke="#000"><path d="m24.32476 116.2095v-89.584111h102.21027" fill="none" stroke-width="4.61595"/><path d="m24.32476 26.625389 50.116004 50.116005" fill="none" stroke-width="4.61595"/><path d="m71.553887 78.443184 4.662404.119257.000507-4.782174z" stroke-width="7.31833"/></g><path d="m6.3035782 5.6775642q-.8061498 0-1.2143923.7958145-.4030749.7906469-.4030749 2.3822759 0 1.5864614.4030749 2.3822764.4082425.790646 1.2143923.790646.8113174 0 1.2143922-.790646.4082426-.795815.4082426-2.3822764 0-1.591629-.4082426-2.3822759-.4030748-.7958145-1.2143922-.7958145zm0-.8268203q1.2970743 0 1.979201 1.0283577.6872944 1.0231901.6872944 2.976553 0 1.9481954-.6872944 2.9765534-.6821267 1.02319-1.979201 1.02319-1.2970744 0-1.9843687-1.02319-.6821268-1.028358-.6821268-2.9765534 0-1.9533629.6821268-2.976553.6872943-1.0283577 1.9843687-1.0283577z" transform="matrix(1.9015102 0 0 1.9015102 -2.874029 -6.465295)"/><circle cx="24.32476" cy="26.625389" r="7.047264" stroke-width="5.29167"/><circle cx="24.32476" cy="119.61129" r="7.047264" stroke-width="5.29167"/><circle cx="122.16327" cy="26.625074" r="7.047264" stroke-width="5.29167"/><path d="m4.2520303 11.82704h1.7053169v-5.8859269l-1.8551781.3720692v-.9508434l1.8448428-.3720691h1.0438606v6.8367702h1.7053169v.878497h-4.4441591z" transform="matrix(1.9015102 0 0 1.9015102 111.23392 -6.250872)"/><g transform="matrix(1.7800662 0 0 1.7800662 25.201832 101.53816)"><path d="m5.502596 12.75858v-1.545121h1.2143923v1.545121z"/><path d="m10.246477 5.0898214h.935341v2.0153745q0 .3048899-.04651 1.0180224h.0155q.542601-1.0593634 1.751825-1.0593634 1.80867 0 1.80867 1.9688658v3.7258593h-.935337v-3.5915011q0-.7027972-.273884-1.0438606-.268716-.3410633-.862994-.3410633-.640785 0-1.054195.470254-.408243.4650864-.408243 1.2660686v3.2401024h-.930173z"/><path d="m17.305455 10.159263q0 .940508.41341 1.472774.418578.532265 1.142046.532265.532266 0 .930173-.227375.403075-.232543.537433-.630451l.816485.232544q-.227376.640785-.837156.981849-.604612.341063-1.446935.341063-1.21956 0-1.875849-.759641-.656288-.759641-.656288-2.1755709 0-1.3797564.640786-2.118727.645953-.7441382 1.860345-.7441382 1.214393 0 1.839675.7389706.625283.7389706.625283 2.2324145v.124023zm1.534785-2.4081138q-.692462 0-1.095536.4547512-.403075.4495835-.428913 1.2402304h3.017894q-.144694-1.6949816-1.493445-1.6949816z"/><path d="m25.842375 12.024777h1.963698v.733803h-5.07461v-.733803h2.180739v-4.1237666h-1.648473v-.733803h2.578646zm-1.033526-5.9427712v-.9921844h1.033526v.9921844z"/><path d="m31.521596 14.949653q-.868161 0-1.395259-.356566-.527098-.356566-.671791-1.02319l.950843-.129191q.08785.387572.377237.594277.294554.211873.769976.211873 1.281572 0 1.281572-1.627802v-1.00252h-.01034q-.253213.532266-.702797.80615-.449583.273884-1.069699.273884-1.02319 0-1.498611-.666624-.470255-.671791-.470255-2.1083915 0-1.4624384.506428-2.1497328.506427-.692462 1.560623-.692462.583942 0 1.012855.2738843.434081.2687165.666624.7699763h.0155q0-.1550288.02067-.5219303.02067-.3720691.04134-.4340806h.883664q-.03101.2790518-.03101 1.1575484v4.2684602q0 1.173051-.547769 1.76216-.547768.594277-1.689814.594277zm1.312578-5.0384358q0-.997352-.387572-1.5657909-.387572-.5736066-1.064532-.5736066-.707964 0-1.02319.4960922-.315225.4909245-.315225 1.6433053 0 .7803118.129191 1.2350628.134358.449584.41341.656289.279052.206705.780312.206705.439248 0 .769976-.242879.335896-.248046.516763-.7183.180867-.475422.180867-1.1368778z"/><path d="m35.65053 5.0898214h.93534v2.0153745q0 .3048899-.04651 1.0180224h.0155q.5426-1.0593634 1.751825-1.0593634 1.80867 0 1.80867 1.9688658v3.7258593h-.935336v-3.5915011q0-.7027972-.273884-1.0438606-.268717-.3410633-.862994-.3410633-.640786 0-1.054196.470254-.408242.4650864-.408242 1.2660686v3.2401024h-.930173z"/><path d="m42.027381 7.9010104v-.733803h.878497l.299722-1.4572708h.620115v1.4572708h2.232415v.733803h-2.232415v3.3692926q0 .408243.217041.604612.222208.19637.723468.19637.692461 0 1.534785-.175699v.707965q-.873329.237711-1.731155.237711-.837156 0-1.255734-.351399-.418577-.356566-.418577-1.121375v-3.4674776z"/><path d="m50.13022 10.019737q0 1.421098.439248 2.568311.439249 1.147213 1.431433 2.366773h-.981849q-.992185-1.21956-1.426265-2.361605-.428913-1.147214-.428913-2.583814 0-1.410762.423745-2.5424723.423746-1.1368779 1.431433-2.3771083h.981849q-.992184 1.2195599-1.431433 2.3719407-.439248 1.1472132-.439248 2.5579749z"/><path d="m58.320908 10.009402q0 1.446936-.428913 2.588981-.423745 1.136878-1.415929 2.356438h-.992185q1.012855-1.245398 1.446936-2.392611.43408-1.152381.43408-2.542473 0-1.3849236-.43408-2.5321368-.434081-1.1523807-1.446936-2.3977788h.992185q1.007687 1.2402304 1.426265 2.3667731.418577 1.1265426.418577 2.5528075z"/></g><path d="m83.671694 34.191232-2.092889 2.816357 2.201409 2.971385h-1.121375l-1.684646-2.273756-1.684647 2.273756h-1.121375l2.247918-3.028229-2.056716-2.759513h1.121375l1.534786 2.061883 1.534785-2.061883z" transform="matrix(1.783676 0 0 1.783676 -69.573994 -49.095442)"/><path d="m81.268747 40.516407q-.403075 1.033526-.785479 1.348751-.382404.315225-1.02319.315225h-.759641v-.795814h.558103q.39274 0 .60978-.186035.217041-.186035.48059-.878497l.170531-.43408-2.340935-5.694725h1.007688l1.808669 4.526841 1.808669-4.526841h1.007688z" transform="matrix(1.783676 0 0 1.783676 -129.69065 9.825406)"/><path d="m78.447223 34.191232h4.516506v.868161l-3.575998 4.15994h3.575998v.759641h-4.645697v-.868161l3.575998-4.15994h-3.446807z" transform="matrix(1.783676 0 0 1.783676 -84.711486 -20.034713)"/></svg>